#!OML:ASF F:\VICON\USERDATA\INSTALL\rory3\rory3.ASF
:FULLY-SPECIFIED
:DEGREES
1837
root 0.733346 17.8788 0.429141 44.9557 62.9263 21.9181
lowerback 13.3544 0.379386 0.654083
upperback 6.32409 1.12383 7.88468
thorax -0.957518 0.61042 7.83203
lowerneck -14.4188 -8.15764 -8.22598
upperneck 32.2985 -9.50527 2.52259
head 13.9572 -4.49624 0.926507
rclavicle -4.77083e-014 -1.92424e-013
rhumerus 18.6365 -6.5592 -96.8582
rradius 37.0886
rwrist -32.917
rhand -22.4857 -19.4501
rfingers 7.12502
rthumb 3.93972 -49.3935
lclavicle -4.77083e-014 -1.92424e-013
lhumerus 3.85511 -45.4919 92.1617
lradius 63.1667
lwrist 38.1498
lhand -22.7434 58.7662
lfingers 7.12502
lthumb 3.69087 -631.286
rfemur -48.2891 -6.36083 15.0199
rtibia 36.9237
rfoot -12.6623 -6.37601
rtoes 14.756
lfemur -25.0637 -4.9737 -20.5582
ltibia 21.7204
lfoot -10.0789 -11.5284
ltoes -25.9672
1838
root 0.755644 17.8729 0.391604 44.5533 62.6412 21.3604
lowerback 13.372 0.142486 0.819225
upperback 6.23192 0.832206 7.83968
thorax -1.02399 0.468367 7.7285
lowerneck -14.5448 -7.85478 -8.29425
upperneck 32.4172 -9.02551 2.44931
head 14.0048 -4.31056 0.986432
rclavicle -5.725e-014 -3.02153e-014
rhumerus 18.9889 -7.77138 -96.6052
rradius 36.7863
rwrist -32.6436
rhand -22.7551 -19.7214
rfingers 7.12502
rthumb 3.67962 -49.6694
lclavicle -5.725e-014 -3.02153e-014
lhumerus 4.91093 -45.7923 91.8056
lradius 62.6036
lwrist 37.9165
lhand -22.8574 59.0581
lfingers 7.12502
lthumb 3.58085 -630.992
rfemur -48.508 -6.56422 15.2357
rtibia 36.9128
rfoot -12.4414 -6.1201
rtoes 14.8068
lfemur -24.9652 -4.92186 -20.6446
ltibia 21.6285
lfoot -10.5563 -10.6621
ltoes -26.4859
1839
root 0.776402 17.8708 0.359631 44.0616 62.3058 20.7077
lowerback 13.4024 -0.0573204 0.869393
upperback 6.15044 0.577913 7.83411
thorax -1.09317 0.342518 7.73079
lowerneck -14.6894 -7.55035 -8.34025
upperneck 32.5282 -8.49519 2.22396
head 14.0404 -4.12095 0.990462
rclavicle -1.90833e-014 -3.49861e-014
rhumerus 19.2987 -8.6971 -96.1518
rradius 36.4274
rwrist -32.6098
rhand -23.1778 -19.9256
rfingers 7.12502
rthumb 3.27141 -49.8803
lclavicle -1.90833e-014 -3.49861e-014
lhumerus 5.77827 -46.0208 91.5869
lradius 62.2233
lwrist 38.0777
lhand -22.9835 59.3299
lfingers 7.12502
lthumb 3.45904 -630.718
rfemur -48.7054 -6.53575 15.3598
rtibia 36.8762
rfoot -12.259 -5.91015
rtoes 14.0483
lfemur -24.8493 -4.82461 -20.7203
ltibia 21.593
lfoot -11.0298 -9.53562
ltoes -26.5204
1840
root 0.798203 17.8704 0.334467 43.5439 61.8706 20.075
lowerback 13.4247 -0.195139 0.845297
upperback 6.07626 0.387802 7.73176
thorax -1.15918 0.246797 7.66044
lowerneck -14.8379 -7.26379 -8.25876
upperneck 32.7195 -8.043 2.0521
head 14.1137 -3.94135 0.980987
rclavicle 2.54444e-014 1.90833e-014
rhumerus 19.4907 -9.74025 -95.7571
rradius 36.1238
rwrist -32.3845
rhand -23.5566 -20.274
rfingers 7.12502
rthumb 2.90562 -50.234
lclavicle 2.54444e-014 1.90833e-014
lhumerus 6.46286 -46.369 91.42
lradius 61.8312
lwrist 38.3692
lhand -23.0957 59.3119
lfingers 7.12502
lthumb 3.35071 -630.735
rfemur -48.8232 -6.30567 15.3301
rtibia 36.8541
rfoot -12.1532 -5.74292
rtoes 13.4617
lfemur -24.6022 -4.67692 -20.8408
ltibia 21.4276
lfoot -11.2759 -8.55313
ltoes -24.3317
1841
root 0.819499 17.8746 0.312564 43.0386 61.3714 19.5352
lowerback 13.4481 -0.340821 0.755851
upperback 6.09887 0.174388 7.59636
thorax -1.12083 0.136511 7.59545
lowerneck -14.9868 -6.99035 -8.25513
upperneck 32.7683 -7.65285 2.06174
head 14.1424 -3.77728 1.04647
rclavicle 2.8625e-014 -4.92986e-014
rhumerus 19.7262 -10.5923 -95.2562
rradius 35.8422
rwrist -32.0558
rhand -23.3639 -20.609
rfingers 7.12502
rthumb 3.09171 -50.5663
lclavicle 2.8625e-014 -4.92986e-014
lhumerus 7.33836 -46.6786 91.0938
lradius 61.3243
lwrist 38.7389
lhand -22.9815 59.303
lfingers 7.12502
lthumb 3.46098 -630.745
rfemur -48.8876 -5.97796 15.1127
rtibia 36.8398
rfoot -12.1548 -5.50861
rtoes 15.5004
lfemur -24.173 -4.41683 -21.0789
ltibia 21.1151
lfoot -11.6859 -7.52228
ltoes -23.6076
1842
root 0.843655 17.8934 0.286489 42.7533 60.9526 19.2461
lowerback 13.3864 -0.545513 0.670297
upperback 6.16471 -0.120266 7.46981
thorax -0.980815 -0.0157067 7.54784
lowerneck -15.0674 -6.68632 -8.12988
upperneck 32.6737 -7.22015 1.94721
head 14.0762 -3.5991 1.05178
rclavicle -3.18055e-015 -7.4743e-014
rhumerus 20.0036 -11.0924 -94.4883
rradius 35.5458
rwrist -31.9906
rhand -23.2098 -21.1337
rfingers 7.12502
rthumb 3.24051 -51.0888
lclavicle -3.18055e-015 -7.4743e-014
lhumerus 8.26717 -46.9583 90.7625
lradius 60.8928
lwrist 39.2661
lhand -22.7541 59.0066
lfingers 7.12502
lthumb 3.6806 -631.045
rfemur -48.9441 -5.3761 14.5036
rtibia 36.8427
rfoot -12.4527 -5.5632
rtoes 19.1706
lfemur -23.7379 -4.23318 -21.3821
ltibia 20.773
lfoot -12.0189 -6.53025
ltoes -24.0867
1843
root 0.869062 17.9042 0.265632 42.3411 60.5042 18.7861
lowerback 13.2846 -0.658736 0.467083
upperback 6.21796 -0.308567 7.3926
thorax -0.844294 -0.117776 7.60622
lowerneck -15.2044 -6.43661 -8.04446
upperneck 32.6791 -6.86447 1.88336
head 14.0779 -3.44954 1.06866
rclavicle -5.40694e-014 5.88403e-014
rhumerus 20.1411 -11.581 -93.5682
rradius 35.3663
rwrist -31.7722
rhand -23.0433 -22.0155
rfingers 7.12502
rthumb 3.40129 -51.9681
lclavicle -5.40694e-014 5.88403e-014
lhumerus 8.94281 -47.2891 90.701
lradius 60.5058
lwrist 39.7513
lhand -22.3978 58.6606
lfingers 7.12502
lthumb 4.02462 -631.398
rfemur -49.0218 -4.85098 14.1424
rtibia 36.8905
rfoot -12.5993 -5.59891
rtoes 20.5897
lfemur -23.2919 -3.83488 -21.6509
ltibia 20.4255
lfoot -12.2034 -5.72766
ltoes -23.9588
1844
root 0.894307 17.907 0.240715 41.6744 60.1995 18.1348
lowerback 13.3182 -0.799194 0.462862
upperback 6.30045 -0.496401 7.37552
thorax -0.750579 -0.214299 7.61684
lowerneck -15.3053 -6.21073 -8.13139
upperneck 32.5675 -6.50852 1.85798
head 14.0315 -3.31685 1.13076
rclavicle -3.97569e-014 6.20208e-014
rhumerus 20.3089 -11.9368 -92.4851
rradius 35.117
rwrist -31.3969
rhand -23.1835 -22.4751
rfingers 7.12502
rthumb 3.26594 -52.4298
lclavicle -3.97569e-014 6.20208e-014
lhumerus 9.74889 -47.6679 90.5631
lradius 60.0565
lwrist 40.3601
lhand -22.0698 58.0476
lfingers 7.12502
lthumb 4.34138 -632.017
rfemur -49.0264 -5.00424 14.4502
rtibia 36.9477
rfoot -12.3309 -5.29194
rtoes 19.3069
lfemur -22.7969 -3.5043 -21.711
ltibia 20.1825
lfoot -12.2825 -5.05796
ltoes -23.047
1845
root 0.919775 17.9082 0.207436 41.4801 59.9929 17.8792
lowerback 13.2405 -0.966363 0.544358
upperback 6.34593 -0.716889 7.29522
thorax -0.635216 -0.325158 7.50939
lowerneck -15.4251 -6.03019 -8.10973
upperneck 32.4168 -6.24346 1.81289
head 13.971 -3.21179 1.15054
rclavicle 5.88403e-014 -3.65764e-014
rhumerus 20.5503 -12.2015 -91.196
rradius 34.614
rwrist -31.0898
rhand -23.5244 -22.0126
rfingers 7.12502
rthumb 2.9367 -51.9721
lclavicle 5.88403e-014 -3.65764e-014
lhumerus 10.6414 -48.3123 90.3091
lradius 59.7008
lwrist 41.3711
lhand -21.612 57.5749
lfingers 7.12502
lthumb 4.78344 -632.499
rfemur -49.2602 -5.47737 14.6453
rtibia 37.0064
rfoot -12.0174 -4.87889
rtoes 19.0701
lfemur -22.7427 -3.37238 -21.8652
ltibia 20.4688
lfoot -12.4956 -4.38194
ltoes -22.5967
1846
root 0.946108 17.9074 0.180983 40.9078 59.744 17.3656
lowerback 13.2809 -1.0749 0.545138
upperback 6.47417 -0.861906 7.2823
thorax -0.502681 -0.400566 7.51497
lowerneck -15.6783 -5.83552 -8.01746
upperneck 32.3838 -5.93036 1.66075
head 13.9822 -3.09008 1.12052
rclavicle -1.59028e-014 -4.13472e-014
rhumerus 20.8311 -12.3822 -89.8216
rradius 33.9852
rwrist -30.4021
rhand -23.4829 -21.7627
rfingers 7.12502
rthumb 2.97675 -51.7217
lclavicle -1.59028e-014 -4.13472e-014
lhumerus 11.6238 -49.0338 89.9162
lradius 59.471
lwrist 42.7529
lhand -21.2749 57.9017
lfingers 7.12502
lthumb 5.10894 -632.18
rfemur -49.2486 -5.66809 14.8936
rtibia 37.0581
rfoot -11.7868 -4.64317
rtoes 18.4539
lfemur -22.4977 -3.04566 -21.9531
ltibia 20.7372
lfoot -12.7141 -3.78717
ltoes -21.8026
1847
root 0.970091 17.8653 0.149182 40.4284 59.4608 16.9477
lowerback 13.2966 -1.17996 0.473917
upperback 6.58701 -1.0139 7.23775
thorax -0.371458 -0.481207 7.52794
lowerneck -15.9384 -5.65766 -7.95648
upperneck 32.448 -5.65128 1.57641
head 14.0447 -2.9772 1.11738
rclavicle -1.59028e-014 -9.70069e-014
rhumerus 21.1504 -12.7954 -88.6056
rradius 33.3589
rwrist -28.8832
rhand -22.9085 -22.516
rfingers 7.12502
rthumb 3.53143 -52.4665
lclavicle -1.59028e-014 -9.70069e-014
lhumerus 12.3828 -49.6909 89.6929
lradius 59.2999
lwrist 44.0089
lhand -21.4404 58.836
lfingers 7.12502
lthumb 4.94911 -631.242
rfemur -49.0899 -6.23449 15.6209
rtibia 37.0966
rfoot -11.3672 -4.41103
rtoes 13.1231
lfemur -22.2237 -2.74993 -22.0858
ltibia 20.9318
lfoot -12.7444 -3.29987
ltoes -21.7214
1848
root 0.994529 17.8795 0.134615 40.2403 59.0597 16.7598
lowerback 13.2426 -1.24228 0.155888
upperback 6.67742 -1.14518 7.15437
thorax -0.223712 -0.558609 7.63713
lowerneck -16.2523 -5.49859 -7.99824
upperneck 32.5189 -5.39816 1.59484
head 14.1326 -2.87451 1.16756
rclavicle -6.52014e-014 3.49861e-014
rhumerus 21.3886 -13.1658 -87.3641
rradius 32.8648
rwrist -26.9269
rhand -22.4638 -23.1821
rfingers 7.12502
rthumb 3.96092 -53.1251
lclavicle -6.52014e-014 3.49861e-014
lhumerus 13.002 -50.3511 89.4911
lradius 59.2559
lwrist 45.1365
lhand -22.6221 58.1288
lfingers 7.12502
lthumb 3.80801 -631.925
rfemur -49.1364 -5.58297 15.1397
rtibia 37.1476
rfoot -11.6172 -4.93906
rtoes 11.8184
lfemur -21.8862 -2.36819 -22.3562
ltibia 20.8719
lfoot -12.6719 -2.91851
ltoes -21.4553
